<?xml version="1.0" encoding="utf-8"?>
<!-- Generator: Adobe Illustrator 24.1.2, SVG Export Plug-In . SVG Version: 6.00 Build 0)  -->
<svg version="1.1" id="Слой_1" xmlns="http://www.w3.org/2000/svg" xmlns:xlink="http://www.w3.org/1999/xlink" x="0px" y="0px"
	 viewBox="0 0 82.54 82.54" style="enable-background:new 0 0 82.54 82.54;" xml:space="preserve">
<style type="text/css">
	.st0{fill:#F4F1EF;}
</style>
<g>
	<g>
		<path class="st0" d="M260.43,236.57h-21.14c-5.64,0-10.24-4.59-10.24-10.24v-21.14c0-5.64,4.59-10.24,10.24-10.24h21.14
			c5.64,0,10.24,4.59,10.24,10.24v21.14C270.67,231.98,266.08,236.57,260.43,236.57z M239.29,196.46c-4.82,0-8.73,3.92-8.73,8.73
			v21.14c0,4.82,3.92,8.73,8.73,8.73h21.14c4.82,0,8.73-3.92,8.73-8.73v-21.14c0-4.82-3.92-8.73-8.73-8.73H239.29z"/>
	</g>
	<g>
		<path class="st0" d="M247.17,216.44c-0.01,0.08-0.01,0.14-0.01,0.2c0,1.85,0,3.7,0,5.55c0,0.93,0.55,1.5,1.49,1.51
			c1.59,0.02,3.18,0.03,4.77,0c1.07-0.02,1.86-0.56,2.32-1.52c0.37-0.75,0.69-1.52,1.02-2.29c0.08-0.18,0.17-0.26,0.38-0.25
			c0.76,0.02,0.58-0.07,0.5,0.61c-0.09,0.82-0.2,1.64-0.29,2.46c-0.08,0.71-0.15,1.41-0.24,2.12c-0.01,0.06-0.12,0.14-0.18,0.14
			c-0.71-0.01-1.42-0.03-2.14-0.06c-0.12,0-0.23-0.02-0.35-0.02c-2.88-0.01-5.77-0.04-8.65-0.03c-1.22,0-2.45,0.07-3.67,0.12
			c-0.24,0.01-0.32-0.06-0.3-0.29c0.01-0.15,0.02-0.3,0-0.45c-0.02-0.2,0.07-0.27,0.26-0.3c0.44-0.07,0.88-0.15,1.32-0.25
			c0.73-0.18,0.95-0.46,0.96-1.2c0.03-3.01,0.07-6.02,0.08-9.03c0.01-1.18-0.03-2.37-0.05-3.55c-0.01-0.32-0.04-0.63-0.09-0.94
			c-0.06-0.36-0.26-0.62-0.62-0.71c-0.5-0.12-1.01-0.23-1.51-0.33c-0.34-0.07-0.34-0.06-0.34-0.41c0-0.63,0-0.63,0.63-0.63
			c3.5,0.03,7,0.08,10.51,0.08c1.16,0,2.31-0.13,3.47-0.22c0.39-0.03,0.42-0.03,0.4,0.36c-0.09,1.34-0.18,2.68-0.26,4.02
			c-0.01,0.15-0.02,0.31-0.01,0.46c0.01,0.17-0.04,0.23-0.22,0.23c-0.71,0.01-0.7,0.01-0.89-0.67c-0.15-0.56-0.31-1.11-0.49-1.66
			c-0.08-0.24-0.21-0.46-0.35-0.68c-0.32-0.48-0.77-0.71-1.35-0.71c-1.84,0-3.67,0-5.51,0c-0.08,0-0.16,0-0.23,0.01
			c-0.28,0.05-0.35,0.13-0.35,0.42c0,1.33,0,2.66,0,4c0,0.84,0.01,1.67,0,2.51c0,0.19,0.06,0.25,0.24,0.24
			c1.23-0.05,2.46-0.08,3.69-0.14c0.64-0.03,0.9-0.27,1.07-0.88c0.14-0.51,0.27-1.03,0.39-1.55c0.04-0.17,0.12-0.22,0.29-0.2
			c0.18,0.01,0.36,0.02,0.54,0c0.16-0.01,0.22,0.03,0.22,0.17c-0.03,0.58-0.06,1.16-0.07,1.74c-0.02,0.71-0.02,1.42-0.03,2.13
			c0,0.45,0,0.91,0.01,1.36c0.01,0.3,0.03,0.6,0.04,0.9c0.01,0.16-0.06,0.21-0.22,0.2c-0.19-0.01-0.37-0.02-0.56,0
			c-0.2,0.02-0.27-0.08-0.31-0.25c-0.08-0.37-0.16-0.74-0.26-1.1c-0.22-0.85-0.55-1.15-1.43-1.18c-1.16-0.04-2.32-0.04-3.49-0.06
			C247.25,216.43,247.22,216.44,247.17,216.44z"/>
	</g>
</g>
<g>
	<g>
		<path class="st0" d="M51.84,62.08H30.7c-5.64,0-10.24-4.59-10.24-10.24V30.7c0-5.64,4.59-10.24,10.24-10.24h21.14
			c5.64,0,10.24,4.59,10.24,10.24v21.14C62.08,57.49,57.49,62.08,51.84,62.08z M30.7,21.97c-4.82,0-8.73,3.92-8.73,8.73v21.14
			c0,4.82,3.92,8.73,8.73,8.73h21.14c4.81,0,8.73-3.92,8.73-8.73V30.7c0-4.82-3.92-8.73-8.73-8.73H30.7z"/>
	</g>
	<g>
		<path class="st0" d="M36.46,50.26c-0.31,0-0.62-0.09-0.89-0.25c-0.52-0.32-0.82-0.87-0.82-1.47V34.01c0-0.63,0.32-1.19,0.87-1.5
			c0.55-0.31,1.19-0.31,1.73,0l12.32,7.25c0.55,0.32,0.87,0.91,0.86,1.54c-0.02,0.63-0.38,1.21-0.94,1.49L37.3,50.05
			C37.02,50.19,36.74,50.26,36.46,50.26z M36.47,33.78c-0.05,0-0.09,0.02-0.11,0.03c-0.04,0.02-0.11,0.08-0.11,0.2v14.52
			c0,0.11,0.07,0.17,0.11,0.19c0.04,0.03,0.12,0.06,0.22,0.01l12.27-7.25c0.14-0.07,0.16-0.16,0.16-0.22c0-0.05-0.01-0.14-0.11-0.2
			l-12.32-7.25C36.54,33.79,36.5,33.78,36.47,33.78z"/>
	</g>
</g>
</svg>
