<svg version="1.1" xmlns="http://www.w3.org/2000/svg" xmlns:xlink="http://www.w3.org/1999/xlink" width="512.000000pt" height="512.000000pt" viewBox="0,0,255.99397,255.99397"><g fill="#e85171" fill-rule="nonzero" stroke="none" stroke-width="1" stroke-linecap="butt" stroke-linejoin="miter" stroke-miterlimit="10" stroke-dasharray="" stroke-dashoffset="0" font-family="none" font-weight="none" font-size="none" text-anchor="none" style="mix-blend-mode: normal"><g transform="translate(-0.00301,0.01378) scale(0.5,0.5)"><g transform="translate(0,512) scale(0.1,-0.1)"><path d="M2323,5110c-598,-58 -1146,-316 -1571,-740c-404,-404 -648,-900 -734,-1495c-10,-70 -13,-382 -13,-1415v-1325l24,-38c13,-21 42,-50 64,-65l41,-27h1325c1034,0 1346,3 1416,13c594,86 1087,328 1493,732c397,397 640,882 729,1460c24,161 24,539 0,700c-89,577 -330,1059 -727,1458c-394,395 -885,641 -1450,727c-125,19 -468,27 -597,15zM2885,4695c462,-72 869,-279 1200,-610c334,-334 538,-738 612,-1210c12,-78 17,-170 17,-315c0,-145 -5,-237 -17,-315c-74,-472 -278,-876 -612,-1210c-329,-329 -717,-527 -1195,-612c-84,-14 -231,-17 -1293,-20l-1198,-4l4,1198c3,1062 6,1209 20,1293c85,478 283,866 612,1195c368,368 805,572 1350,629c81,8 403,-4 500,-19z"></path><path d="M2372,3709c-282,-43 -500,-219 -527,-425c-17,-124 73,-225 200,-226c67,-1 90,15 160,108c93,124 178,161 345,152c188,-11 295,-112 275,-261c-14,-108 -68,-177 -250,-323c-149,-119 -216,-211 -262,-361c-13,-44 -18,-92 -18,-198c0,-157 12,-196 71,-224c41,-20 136,-26 200,-12c65,15 114,63 114,114c1,18 5,76 9,129c12,131 45,194 155,292c225,200 290,274 360,413c178,349 -18,704 -445,808c-79,19 -302,27 -387,14z"></path><path d="M2413,1676c-131,-42 -201,-146 -190,-282c17,-221 275,-320 438,-167c54,50 89,127 89,193c0,95 -76,208 -164,245c-51,22 -126,26 -173,11z"></path></g></g></g></svg>